<?xml version="1.0" standalone="no"?>
<!DOCTYPE svg PUBLIC "-//W3C//DTD SVG 20010904//EN"
 "http://www.w3.org/TR/2001/REC-SVG-20010904/DTD/svg10.dtd">
<svg version="1.0" xmlns="http://www.w3.org/2000/svg"
 width="2000.000000pt" height="2000.000000pt" viewBox="0 0 2000.000000 2000.000000"
 preserveAspectRatio="xMidYMid meet">
<metadata>
Created by potrace 1.11, written by Peter Selinger 2001-2013
</metadata>
<g transform="translate(0.000000,2000.000000) scale(0.100000,-0.100000)"
fill="#000000" stroke="none">
<path d="M9615 19994 c-2216 -89 -4324 -901 -6020 -2318 -427 -356 -915 -844
-1271 -1271 -1261 -1509 -2052 -3364 -2263 -5305 -45 -415 -55 -616 -55 -1100
0 -484 10 -685 55 -1100 211 -1941 1002 -3796 2263 -5305 356 -427 844 -915
1271 -1271 1549 -1295 3468 -2096 5460 -2279 360 -33 515 -39 945 -39 430 0
585 6 945 39 1992 183 3911 984 5460 2279 427 356 915 844 1271 1271 1295
1549 2096 3468 2279 5460 33 360 39 515 39 945 0 430 -6 585 -39 945 -183
1992 -984 3911 -2279 5460 -356 427 -844 915 -1271 1271 -1343 1122 -2964
1876 -4675 2173 -349 61 -644 97 -1030 126 -195 15 -884 27 -1085 19z m4310
-6214 c481 -35 848 -122 1274 -300 161 -67 373 -173 532 -266 111 -65 131 -74
176 -74 89 0 88 -4 91 321 l3 279 364 0 365 0 0 -1225 0 -1225 -319 0 c-296 0
-320 1 -325 18 -3 9 -12 60 -21 112 -48 287 -159 578 -302 795 -95 142 -264
309 -413 407 -348 228 -690 339 -1136 369 -208 14 -387 3 -560 -37 -143 -32
-189 -47 -309 -103 -147 -69 -238 -133 -345 -240 -80 -80 -103 -112 -143 -191
-107 -214 -125 -468 -47 -673 30 -79 109 -196 173 -253 79 -72 213 -155 391
-243 205 -101 379 -169 741 -291 696 -235 1110 -399 1520 -600 294 -145 493
-287 720 -515 389 -388 578 -751 659 -1260 71 -452 37 -933 -95 -1311 -44
-128 -149 -334 -227 -444 -81 -115 -287 -325 -400 -408 -429 -316 -1014 -527
-1703 -616 -326 -42 -481 -51 -884 -51 -468 0 -734 23 -1075 92 -463 93 -1002
295 -1331 499 -75 47 -97 55 -139 56 -40 1 -56 -3 -73 -21 -21 -21 -22 -28
-25 -301 l-3 -280 -362 2 -362 3 -3 1198 -2 1197 320 0 c248 0 321 -3 324 -12
2 -7 16 -74 30 -149 106 -567 403 -946 957 -1225 467 -234 1064 -322 1626
-238 459 68 809 259 963 526 97 167 147 404 137 643 -14 311 -135 528 -427
765 -256 208 -461 306 -1285 615 -924 348 -1319 522 -1586 701 -363 242 -673
598 -814 934 -149 352 -201 879 -130 1296 99 576 433 1018 997 1318 411 218
908 347 1543 400 196 16 749 20 940 6z m-4307 -262 l-3 -163 -2111 -3310
c-1161 -1820 -2128 -3336 -2148 -3368 l-37 -58 1398 4 c1531 4 1461 1 1635 63
124 44 247 123 329 211 178 190 332 595 424 1113 14 80 28 155 31 168 l4 22
276 0 275 0 -5 -32 c-3 -18 -58 -548 -121 -1178 -64 -630 -118 -1155 -121
-1167 l-4 -23 -3275 0 -3275 0 0 274 0 273 2116 3274 c1164 1801 2118 3280
2121 3287 7 16 -2121 18 -2244 2 -217 -29 -393 -95 -543 -206 -301 -221 -512
-677 -576 -1241 l-7 -63 -273 0 -274 0 0 1140 0 1140 3205 0 3206 0 -3 -162z"/>
</g>
</svg>
